<svg width="35" height="28" viewBox="0 0 35 28" fill="none" xmlns="http://www.w3.org/2000/svg">
<path d="M1.34615 0C0.989132 0 0.646732 0.163889 0.394279 0.455612C0.141826 0.747335 0 1.143 0 1.55556C0 1.96811 0.141826 2.36378 0.394279 2.6555C0.646732 2.94722 0.989132 3.11111 1.34615 3.11111H33.6538C34.0109 3.11111 34.3533 2.94722 34.6057 2.6555C34.8582 2.36378 35 1.96811 35 1.55556C35 1.143 34.8582 0.747335 34.6057 0.455612C34.3533 0.163889 34.0109 0 33.6538 0H1.34615ZM0 14C0 13.5874 0.141826 13.1918 0.394279 12.9001C0.646732 12.6083 0.989132 12.4444 1.34615 12.4444H33.6538C34.0109 12.4444 34.3533 12.6083 34.6057 12.9001C34.8582 13.1918 35 13.5874 35 14C35 14.4126 34.8582 14.8082 34.6057 15.0999C34.3533 15.3917 34.0109 15.5556 33.6538 15.5556H1.34615C0.989132 15.5556 0.646732 15.3917 0.394279 15.0999C0.141826 14.8082 0 14.4126 0 14ZM0 26.4444C0 26.0319 0.141826 25.6362 0.394279 25.3445C0.646732 25.0528 0.989132 24.8889 1.34615 24.8889H33.6538C34.0109 24.8889 34.3533 25.0528 34.6057 25.3445C34.8582 25.6362 35 26.0319 35 26.4444C35 26.857 34.8582 27.2527 34.6057 27.5444C34.3533 27.8361 34.0109 28 33.6538 28H1.34615C0.989132 28 0.646732 27.8361 0.394279 27.5444C0.141826 27.2527 0 26.857 0 26.4444Z" fill="white"/>
<path d="M1.34615 0C0.989132 0 0.646732 0.163889 0.394279 0.455612C0.141826 0.747335 0 1.143 0 1.55556C0 1.96811 0.141826 2.36378 0.394279 2.6555C0.646732 2.94722 0.989132 3.11111 1.34615 3.11111H33.6538C34.0109 3.11111 34.3533 2.94722 34.6057 2.6555C34.8582 2.36378 35 1.96811 35 1.55556C35 1.143 34.8582 0.747335 34.6057 0.455612C34.3533 0.163889 34.0109 0 33.6538 0H1.34615ZM0 14C0 13.5874 0.141826 13.1918 0.394279 12.9001C0.646732 12.6083 0.989132 12.4444 1.34615 12.4444H33.6538C34.0109 12.4444 34.3533 12.6083 34.6057 12.9001C34.8582 13.1918 35 13.5874 35 14C35 14.4126 34.8582 14.8082 34.6057 15.0999C34.3533 15.3917 34.0109 15.5556 33.6538 15.5556H1.34615C0.989132 15.5556 0.646732 15.3917 0.394279 15.0999C0.141826 14.8082 0 14.4126 0 14ZM0 26.4444C0 26.0319 0.141826 25.6362 0.394279 25.3445C0.646732 25.0528 0.989132 24.8889 1.34615 24.8889H33.6538C34.0109 24.8889 34.3533 25.0528 34.6057 25.3445C34.8582 25.6362 35 26.0319 35 26.4444C35 26.857 34.8582 27.2527 34.6057 27.5444C34.3533 27.8361 34.0109 28 33.6538 28H1.34615C0.989132 28 0.646732 27.8361 0.394279 27.5444C0.141826 27.2527 0 26.857 0 26.4444Z" stroke="white"/>
</svg>
