<svg width="32" height="32" viewBox="0 0 32 32" fill="none" xmlns="http://www.w3.org/2000/svg">
<path d="M30 30L22.7407 22.7407M26.1975 14.0988C26.1975 15.6876 25.8846 17.2609 25.2766 18.7288C24.6685 20.1967 23.7774 21.5304 22.6539 22.6539C21.5304 23.7774 20.1967 24.6685 18.7288 25.2766C17.2609 25.8846 15.6876 26.1975 14.0988 26.1975C12.5099 26.1975 10.9367 25.8846 9.46877 25.2766C8.00088 24.6685 6.66712 23.7774 5.54365 22.6539C4.42017 21.5304 3.52898 20.1967 2.92096 18.7288C2.31294 17.2609 2 15.6876 2 14.0988C2 10.89 3.27469 7.8126 5.54365 5.54365C7.8126 3.27469 10.89 2 14.0988 2C17.3076 2 20.3849 3.27469 22.6539 5.54365C24.9228 7.8126 26.1975 10.89 26.1975 14.0988Z" stroke="white" stroke-width="3" stroke-linecap="round" stroke-linejoin="round"/>
</svg>
